<?xml version="1.0" encoding="utf-8"?>
<svg version="1.1" x="0px" y="0px" viewBox="0 0 64 80" style="enable-background:new 0 0 64 64;" xmlns="http://www.w3.org/2000/svg">
  <path d="M7,46c1.654,0,3-1.346,3-3V28V3c0-0.553-0.448-1-1-1C5.14,2,2,5.141,2,9v17c0,1.302,0.839,2.402,2,2.816V43  C4,44.654,5.346,46,7,46z M8,43c0,0.552-0.449,1-1,1s-1-0.448-1-1V29h2V43z M4,9c0-2.415,1.721-4.435,4-4.899V27H5  c-0.551,0-1-0.448-1-1V9z"/>
  <path d="M12.197,46.984l2.38,3.57c0.149,0.224,0.383,0.378,0.647,0.428C15.286,50.994,15.348,51,15.41,51  c0.204,0,0.404-0.062,0.573-0.181l7.982-5.588c0.08,0.119,0.145,0.247,0.231,0.363c1.777,2.404,4.361,4.254,7.472,5.349  C31.776,50.981,31.888,51,32,51c0.154,0,0.307-0.035,0.447-0.105l1.736-0.868c0.694,0.078,1.511,0.139,2.398,0.139  c2.384,0,5.21-0.439,7.095-2.169c4.255-3.904,2.37-10.964,2.288-11.263C45.844,36.301,45.45,36,45,36c-0.001,0-0.003,0-0.005,0  c-0.159,0.001-3.933,0.031-6.413,1.172c-1.247,0.574-2.311,1.318-3.097,1.972c-0.186-0.521-0.389-1.046-0.564-1.495  c-0.009-0.022-0.02-0.045-0.029-0.067l16.796-11.757c0.445-0.312,0.56-0.922,0.259-1.374l-2.38-3.571  c-0.149-0.224-0.382-0.378-0.647-0.428c-0.267-0.051-0.539,0.009-0.758,0.163l-2.715,1.9l-0.523-0.573  c-5.096-6.229-13.495-8.189-20.661-5.213l-0.308-1.079c-0.34-1.192-1.251-2.122-2.436-2.487c-1.186-0.364-2.462-0.109-3.414,0.685  c-1.062,0.886-1.53,2.273-1.222,3.621c0.259,1.131,1.027,2.043,2.058,2.507c-6.797,5.629-7.308,16.158-3.406,23.479l-3.08,2.156  C12.011,45.922,11.896,46.532,12.197,46.984z M32.542,37.246c0.056,0.111,0.113,0.222,0.17,0.344  c0.118,0.251,0.233,0.509,0.343,0.786c1.402,3.604,0.84,7.229,0.323,9.212c-0.343-1.171-0.789-2.514-1.468-4.003  c-0.834-1.831-1.883-3.577-3.115-5.191l-1.59,1.213c1.142,1.496,2.112,3.113,2.885,4.809c0.748,1.64,1.215,3.141,1.556,4.376  c-0.038-0.016-0.076-0.032-0.114-0.048c-0.541-0.224-1.063-0.471-1.56-0.746c-0.056-0.031-0.109-0.064-0.164-0.096  c-0.498-0.284-0.975-0.591-1.423-0.925c-0.041-0.03-0.078-0.063-0.118-0.094c-0.453-0.346-0.882-0.713-1.278-1.107  c-0.022-0.021-0.041-0.045-0.062-0.066c-0.406-0.411-0.784-0.844-1.123-1.303c-0.254-0.344-0.466-0.716-0.66-1.098  c-0.563-1.114-0.931-2.457-1.091-4.001c-0.325-3.131,0.262-6.344,0.634-7.957c1.024,0.431,2.664,1.187,4.2,2.176  c0.017,0.011,0.034,0.022,0.051,0.033c0.503,0.326,0.995,0.677,1.448,1.05c0.196,0.161,0.38,0.322,0.551,0.482  c0.004,0.004,0.009,0.008,0.013,0.012c0.162,0.152,0.312,0.303,0.451,0.453c0.011,0.012,0.022,0.023,0.033,0.034  c0.13,0.142,0.247,0.282,0.355,0.421c0.013,0.017,0.029,0.034,0.042,0.052c0.117,0.153,0.222,0.305,0.313,0.456  C32.286,36.751,32.414,36.997,32.542,37.246z M39.417,38.988c1.468-0.675,3.624-0.889,4.782-0.957  c0.317,1.749,0.766,6.069-1.875,8.492c-1.521,1.397-4.082,1.676-6.072,1.637l2.394-2.396c1.091-0.923,3.086-2.517,3.796-2.866  l-0.884-1.795c-1.161,0.572-3.896,2.873-4.265,3.19l-1.536,1.536c0.172-1.251,0.245-2.714,0.085-4.276  C36.197,41.123,37.597,39.826,39.417,38.988z M48.471,22.841l1.271,1.906L34.016,35.755c-0.053-0.093-0.106-0.184-0.16-0.272  c-0.153-0.253-0.328-0.499-0.518-0.74c-0.057-0.072-0.125-0.143-0.185-0.215c-0.151-0.179-0.306-0.356-0.474-0.528  c-0.021-0.021-0.036-0.043-0.057-0.064L48.471,22.841z M19.386,15.385c0.437-0.364,1.001-0.479,1.544-0.31  c0.544,0.167,0.946,0.577,1.102,1.124l0.394,1.381l-0.534,0.356c-0.019,0.013-0.037,0.028-0.056,0.041  c-0.226,0.137-0.457,0.26-0.679,0.408l-0.162,0.108l-0.951-0.237c-0.616-0.154-1.068-0.616-1.21-1.234  C18.691,16.403,18.898,15.791,19.386,15.385z M21.297,20.695l0.17-0.113c0.17-0.025,0.336-0.081,0.475-0.191  c0.343-0.271,0.688-0.543,1.06-0.79l0.056-0.037c2.51-1.473,5.276-2.198,8.023-2.198c4.617,0,9.172,2.025,12.331,5.884l0.385,0.422  l-12.743,8.92c-0.036-0.027-0.074-0.053-0.111-0.08c-2.866-2.102-6.4-3.38-6.607-3.454c-0.082-0.029-0.168-0.028-0.252-0.035  c-0.049-0.004-0.097-0.023-0.146-0.02c-0.083,0.005-0.162,0.039-0.242,0.065c-0.048,0.016-0.1,0.016-0.146,0.04  c-0.048,0.025-0.081,0.068-0.125,0.099c-0.175,0.127-0.318,0.294-0.381,0.504c-0.001,0.004-0.007,0.024-0.009,0.03  c-0.005,0.017-0.011,0.038-0.021,0.074c-0.192,0.658-1.312,4.766-1.003,9.08c0.001,0.009,0.001,0.019,0.001,0.028l-4.839,3.388  C13.583,35.36,14.306,25.356,21.297,20.695z M22.315,41.15c0.008,0.037,0.019,0.071,0.027,0.108  c0.077,0.356,0.163,0.709,0.268,1.057c0.015,0.051,0.034,0.099,0.05,0.15c0.105,0.336,0.218,0.668,0.351,0.992l-7.338,5.136  l-1.271-1.905L22.315,41.15z"/>
  <path d="M61,53H3c-0.375,0-0.718,0.209-0.889,0.542c-0.171,0.334-0.142,0.734,0.076,1.039C5.504,59.227,10.894,62,16.603,62h30.795  c5.708,0,11.098-2.773,14.416-7.419c0.218-0.305,0.247-0.705,0.076-1.039C61.718,53.209,61.375,53,61,53z M47.397,60H16.603  c-4.378,0-8.545-1.839-11.495-5h53.785C55.942,58.161,51.776,60,47.397,60z"/>
  <path d="M60,13h-2V2h-2v11h-2V2h-2v12v2c0,1.302,0.839,2.402,2,2.816V43c0,1.654,1.346,3,3,3s3-1.346,3-3V18.816  c1.161-0.414,2-1.514,2-2.816v-2V2h-2V13z M58,43c0,0.552-0.449,1-1,1s-1-0.448-1-1V19h2V43z M60,16c0,0.552-0.449,1-1,1h-4  c-0.551,0-1-0.448-1-1v-1h6V16z"/>
</svg>