<?xml version="1.0" encoding="utf-8"?>
<svg viewBox="0 0 64 80" x="0px" y="0px" xmlns="http://www.w3.org/2000/svg">
  <path d="M61,31H58.59a9.3,9.3,0,0,0-.535-3.685l.041-.041a3.1,3.1,0,0,0,0-4.37,3.061,3.061,0,0,0-1.112-.7c0-.068.017-.133.017-.2a3.986,3.986,0,0,0-.493-1.922,1.161,1.161,0,0,1,0-1.155A3.985,3.985,0,0,0,55.3,13.739a.972.972,0,0,1-.373-.987A3.947,3.947,0,0,0,52,8.17a4.134,4.134,0,0,0-3.292-4.108,4.063,4.063,0,0,0-2.031.162,5.014,5.014,0,0,1-3.354,0l0,.006a3.6,3.6,0,0,0-.613-.168,4.063,4.063,0,0,0-2.031.162,5.014,5.014,0,0,1-3.354,0,3.939,3.939,0,0,0-.616-.155V4.062c-.068-.012-.137-.015-.206-.023s-.164-.022-.248-.027-.154,0-.231,0c-.1,0-.194,0-.291,0-.069,0-.138.015-.206.023s-.156.012-.234.026c-.02,0-.039.012-.059.016a3.919,3.919,0,0,0-.556.146,5.014,5.014,0,0,1-3.354,0,4.04,4.04,0,0,0-2.031-.162,4.145,4.145,0,0,0-3.3,4.067,4,4,0,0,0-2.916,4.624,1.012,1.012,0,0,1-.072.608V12A8,8,0,0,0,7,12V22.131A4.164,4.164,0,0,0,6,22a4.077,4.077,0,0,0-3.15,1.439,3.587,3.587,0,0,0-.792,2.944L2.9,31.02A.991.991,0,0,0,2,32v8a1,1,0,0,0,1,1H6v2H3a1,1,0,0,0-1,1v8a1,1,0,0,0,1,1H9V51H4V45H60v6H47v2H61a1,1,0,0,0,1-1V44a1,1,0,0,0-1-1H58V41h3a1,1,0,0,0,1-1V32A1,1,0,0,0,61,31Zm-5.86-6.681a1.09,1.09,0,0,1,1.542,1.541l-.493.492a1,1,0,0,0-.232,1.053l.188.51A7.183,7.183,0,0,1,56.578,31H43.5a7.226,7.226,0,0,1,2.8-5.044A7.093,7.093,0,0,1,52.821,24.8l.822.256a1,1,0,0,0,1.005-.248Zm-7.8-18.207a2.026,2.026,0,0,1,1.028-.08A2.117,2.117,0,0,1,50,8.17a1.982,1.982,0,0,0,1.507,1.895A2,2,0,0,1,53,12a1.961,1.961,0,0,1-.035.371,2.972,2.972,0,0,0,1.188,3.006,1.984,1.984,0,0,1,.6,2.581,3.184,3.184,0,0,0,0,3.084A1.97,1.97,0,0,1,55,22c0,.053-.009.1-.013.156a3.052,3.052,0,0,0-1.262.749l-.064.065-.244-.076a9.339,9.339,0,0,0-2.458-.413A4.07,4.07,0,0,0,51,22a3.986,3.986,0,0,0-.493-1.922,1.161,1.161,0,0,1,0-1.155A3.985,3.985,0,0,0,49.3,13.739a.971.971,0,0,1-.373-.987A3.947,3.947,0,0,0,46,8.17a4.282,4.282,0,0,0-.37-1.711A7.071,7.071,0,0,0,47.339,6.112ZM34,8.17A2.156,2.156,0,0,1,35.385,6.1a1.909,1.909,0,0,1,.359-.075A1.934,1.934,0,0,1,36,6.014a1.961,1.961,0,0,1,.264.013,1.985,1.985,0,0,1,.4.085,7.021,7.021,0,0,0,4.677,0,2.026,2.026,0,0,1,1.028-.08A2.117,2.117,0,0,1,44,8.17a1.982,1.982,0,0,0,1.507,1.895A2,2,0,0,1,47,12a1.961,1.961,0,0,1-.035.371,2.971,2.971,0,0,0,1.188,3.006,1.984,1.984,0,0,1,.6,2.581,3.184,3.184,0,0,0,0,3.084A1.97,1.97,0,0,1,49,22a1.931,1.931,0,0,1-.108.639,9.1,9.1,0,0,0-3.816,1.733A9.223,9.223,0,0,0,41.489,31H40V28.535l2.555-1.7-1.11-1.664L40,26.131v-2.6l5.555-3.7-1.11-1.664L40,21.131V16.5l3.6-2.7-1.2-1.6L40,14V9H38v5l-2.4-1.8-1.2,1.6L38,16.5v4.631l-4.445-2.963-1.11,1.664L38,23.535v2.6l-1.445-.963-1.11,1.664L38,28.535V31H35.563l-.592-2.421a1,1,0,0,0-1.306-.705,1.738,1.738,0,0,1-1.6-.151,2.113,2.113,0,0,1-1.023-1.3A1.985,1.985,0,0,1,31,26.083a3.29,3.29,0,0,0-1.218-2.507,1.983,1.983,0,0,1-.539-2.534,3.184,3.184,0,0,0,0-3.084,1.984,1.984,0,0,1,.6-2.581,2.973,2.973,0,0,0,1.189-3.005A1.9,1.9,0,0,1,31,12a2,2,0,0,1,1.493-1.935A1.982,1.982,0,0,0,34,8.17ZM33.5,31h-4.11a7.923,7.923,0,0,0,.567-2.484,4.358,4.358,0,0,0,1.1.933,3.748,3.748,0,0,0,2.2.541ZM23.846,15.377a2.973,2.973,0,0,0,1.19-3.005A1.9,1.9,0,0,1,25,12a2,2,0,0,1,1.493-1.935A1.982,1.982,0,0,0,28,8.17a2.117,2.117,0,0,1,1.634-2.138,2.019,2.019,0,0,1,1.028.08,7.108,7.108,0,0,0,1.7.346,4.207,4.207,0,0,0-.372,1.671,4,4,0,0,0-2.916,4.624.97.97,0,0,1-.373.986,3.984,3.984,0,0,0-1.206,5.183,1.161,1.161,0,0,1,0,1.155,3.99,3.99,0,0,0-.479,1.7,7.958,7.958,0,0,0-3.453-1.621,3.174,3.174,0,0,0-.316-2.2,1.985,1.985,0,0,1,.6-2.581ZM23,25.388l1.684.561.632-1.9L23,23.279V22.09A5.967,5.967,0,0,1,27.178,31H16.823A5.943,5.943,0,0,1,16,28a6.006,6.006,0,0,1,5-5.91v1.189l-2.316.772.632,1.9L21,25.388V27h2ZM9,12a6,6,0,0,1,12,0v8.069a7.99,7.99,0,0,0-5,2.657V21.414l3.207-3.207-1.414-1.414L16,18.586V15.414l3.207-3.207-1.414-1.414L16,12.586V9H14v3.586l-1.793-1.793-1.414,1.414L14,15.414v3.172l-1.793-1.793-1.414,1.414.156.156A5.36,5.36,0,0,0,9,20.037Zm3.207,7.621L14,21.414v1.11a4.073,4.073,0,0,0-3.924-.04,3.377,3.377,0,0,1,2.24-2.535Zm-7.821,5.1A2.081,2.081,0,0,1,6,24a1.89,1.89,0,0,1,2,1.752,1,1,0,0,0,2,0A1.89,1.89,0,0,1,12,24a2.081,2.081,0,0,1,1.614.721,1.57,1.57,0,0,1,.361,1.3L13.071,31H4.929l-.9-4.975A1.57,1.57,0,0,1,4.386,24.721ZM14,43H8V41h6Zm34,0H16V41H48Zm8,0H50V41h6Zm4-4H4V33H60Z"/>
  <rect x="9.959" y="35" width="1.973" height="2" style=""/>
  <rect x="51.386" y="35" width="1.973" height="2" style=""/>
  <rect x="9.959" y="47" width="1.973" height="2" style=""/>
  <rect x="51.386" y="47" width="1.973" height="2" style=""/>
  <path d="M 7 58.42 C 6.959 60.441 8.291 62.123 9.979 62.179 L 32.705 62.179 C 35.113 62.12 37.219 60.222 37.932 57.465 L 43.555 57.649 L 43.581 57.649 C 44.134 57.649 44.579 57.104 44.568 56.443 L 44.482 51.521 C 44.47 50.811 43.942 50.275 43.355 50.375 L 37.426 51.39 C 37.039 50.571 36.517 49.856 35.892 49.287 C 34.575 48.082 32.859 47.695 31.266 48.246 L 9.172 54.799 C 7.862 55.302 6.981 56.772 7 58.42 Z M 42.532 52.904 L 42.57 55.253 L 38.255 55.111 L 38.255 55.09 C 38.252 54.608 38.211 54.128 38.132 53.655 Z M 9.692 57.081 L 19.823 54.075 L 19.823 56.271 L 21.795 56.271 L 21.795 53.49 L 30.673 50.856 L 30.673 55.09 L 32.645 55.09 L 32.645 50.369 C 32.67 50.369 32.696 50.362 32.72 50.362 C 33.44 50.367 34.139 50.654 34.71 51.18 C 35.716 52.117 36.298 53.563 36.282 55.09 C 36.377 57.576 34.779 59.686 32.705 59.816 L 27.714 59.816 L 27.714 56.271 L 25.741 56.271 L 25.741 59.816 L 9.979 59.816 C 9.381 59.76 8.932 59.137 8.973 58.42 C 8.949 57.835 9.238 57.297 9.692 57.081 Z" style=""/>
</svg>
