<?xml version="1.0" encoding="utf-8"?>
<svg version="1.1" x="0px" y="0px" viewBox="0 0 64 80" style="enable-background:new 0 0 64 64;" xmlns="http://www.w3.org/2000/svg">
  <path d="M 61 42.468 L 59.333 42.468 L 59.271 42.419 L 61.955 33.356 C 62.049 33.038 61.993 32.693 61.805 32.425 C 61.617 32.157 61.317 32 61 32 L 3 32 C 2.683 32 2.384 32.158 2.195 32.426 C 2.006 32.694 1.951 33.039 2.045 33.357 L 4.729 42.42 L 4.667 42.468 L 3 42.468 C 2.447 42.468 2 42.937 2 43.515 L 2 58.17 C 2 58.748 2.447 59.217 3 59.217 L 14.123 59.217 C 17.732 61.952 21.971 63.405 26.415 63.405 L 37.585 63.405 C 42.029 63.405 46.268 61.952 49.877 59.217 L 61 59.217 C 61.553 59.217 62 58.748 62 58.17 L 62 43.515 C 62 42.937 61.553 42.468 61 42.468 Z M 4 44.562 L 5 44.562 C 5.217 44.562 5.427 44.489 5.6 44.352 L 13.333 38.281 L 20 38.281 C 20.552 38.281 21 38.751 21 39.328 C 21 39.905 20.552 40.375 20 40.375 L 17 40.375 L 13 40.375 L 13 42.468 L 17 42.468 L 20 42.468 L 25 42.468 C 25.552 42.468 26 42.938 26 43.515 C 26 44.092 25.552 44.562 25 44.562 L 19 44.562 L 18 44.562 L 18 46.655 L 19 46.655 L 25 46.655 L 27 46.655 C 27.552 46.655 28 47.125 28 47.702 C 28 48.279 27.552 48.749 27 48.749 L 25 48.749 L 19 48.749 L 18 48.749 L 18 50.843 L 19 50.843 L 25 50.843 C 25.552 50.843 26 51.313 26 51.89 C 26 52.466 25.552 52.936 25 52.936 L 20 52.936 L 18 52.936 L 18 55.03 L 20 55.03 C 20.602 55.03 22 55.133 22 56.077 C 22 56.654 21.552 57.124 21 57.124 L 14.433 57.124 L 4 57.124 L 4 44.562 Z M 37.585 61.311 L 26.415 61.311 C 23.437 61.311 20.559 60.594 17.938 59.217 L 21 59.217 C 22.654 59.217 24 57.808 24 56.077 C 24 55.726 23.937 55.371 23.814 55.03 L 25 55.03 C 26.654 55.03 28 53.621 28 51.89 C 28 51.476 27.919 51.084 27.78 50.721 C 29.055 50.359 30 49.15 30 47.702 C 30 46.255 29.055 45.044 27.78 44.683 C 27.919 44.321 28 43.929 28 43.515 C 28 41.784 26.654 40.375 25 40.375 L 22.816 40.375 C 22.928 40.046 23 39.696 23 39.328 C 23 37.596 21.654 36.187 20 36.187 L 13 36.187 C 12.783 36.187 12.573 36.261 12.4 36.397 L 6.427 41.085 L 4.357 34.094 L 59.642 34.094 L 57.572 41.085 L 51.6 36.397 C 51.427 36.261 51.217 36.187 51 36.187 L 44 36.187 C 42.346 36.187 41 37.596 41 39.328 C 41 39.696 41.072 40.046 41.184 40.375 L 39 40.375 C 37.346 40.375 36 41.784 36 43.515 C 36 43.929 36.081 44.321 36.22 44.683 C 34.945 45.044 34 46.255 34 47.702 C 34 49.15 34.945 50.36 36.22 50.721 C 36.081 51.084 36 51.476 36 51.89 C 36 53.621 37.346 55.03 39 55.03 L 40.186 55.03 C 40.063 55.371 40 55.726 40 56.077 C 40 57.808 41.346 59.217 43 59.217 L 46.062 59.217 C 43.441 60.594 40.562 61.311 37.585 61.311 Z M 60 57.124 L 49.567 57.124 L 43 57.124 C 42.448 57.124 42 56.654 42 56.077 C 42 55.133 43.398 55.03 44 55.03 L 46 55.03 L 46 52.936 L 44 52.936 L 39 52.936 C 38.448 52.936 38 52.466 38 51.89 C 38 51.313 38.448 50.843 39 50.843 L 45 50.843 L 46 50.843 L 46 48.749 L 45 48.749 L 39 48.749 L 37 48.749 C 36.448 48.749 36 48.279 36 47.702 C 36 47.125 36.448 46.655 37 46.655 L 39 46.655 L 45 46.655 L 46 46.655 L 46 44.562 L 45 44.562 L 39 44.562 C 38.448 44.562 38 44.092 38 43.515 C 38 42.938 38.448 42.468 39 42.468 L 44 42.468 L 47 42.468 L 51 42.468 L 51 40.375 L 47 40.375 L 44 40.375 C 43.448 40.375 43 39.905 43 39.328 C 43 38.751 43.448 38.281 44 38.281 L 50.667 38.281 L 58.4 44.352 C 58.573 44.489 58.783 44.562 59 44.562 L 60 44.562 L 60 57.124 Z" style=""/>
  <path d="M57.778,18.293l-8.485,8.485c-0.391,0.391-0.391,1.023,0,1.414c1.322,1.322,3.08,2.05,4.949,2.05  c0.386,0,0.764-0.038,1.138-0.099c0.004-0.001,0.008,0,0.012-0.001c0.003,0,0.005-0.001,0.008-0.002  c0.357-0.059,0.707-0.145,1.048-0.257c0.005-0.002,0.009-0.003,0.014-0.005c0.333-0.111,0.657-0.245,0.969-0.405  c0.008-0.004,0.017-0.008,0.025-0.012c0.29-0.15,0.568-0.324,0.836-0.515c0.054-0.038,0.106-0.078,0.159-0.118  c0.255-0.193,0.503-0.398,0.733-0.628c0.003-0.003,0.007-0.005,0.01-0.008c0.005-0.005,0.009-0.011,0.015-0.017  c0.193-0.194,0.369-0.399,0.535-0.61c0.045-0.058,0.087-0.118,0.13-0.178c0.129-0.175,0.25-0.355,0.36-0.539  c0.034-0.056,0.068-0.112,0.1-0.169c0.133-0.236,0.254-0.476,0.358-0.723c0.003-0.006,0.006-0.011,0.008-0.017  c0.112-0.269,0.205-0.544,0.282-0.823c0.003-0.012,0.009-0.023,0.012-0.036c0.002-0.007,0-0.013,0.001-0.02  c0.626-2.338,0.029-4.938-1.801-6.769C59.005,18.105,58.751,18,58.485,18S57.966,18.105,57.778,18.293z M58.507,25.82  c-0.064,0.106-0.121,0.217-0.193,0.318c-0.159,0.224-0.335,0.439-0.536,0.64c-0.245,0.245-0.513,0.459-0.798,0.646  c-0.057,0.037-0.12,0.06-0.178,0.095c-0.237,0.141-0.479,0.273-0.737,0.373c-0.01,0.004-0.022,0.006-0.032,0.01l-0.548-3.284  l3.209,0.875C58.638,25.605,58.572,25.712,58.507,25.82z M53.576,25.324l0.485,2.906c-0.928-0.033-1.815-0.309-2.576-0.814  L53.576,25.324z M59.219,23.563l-3.051-0.832l2.246-2.246C59.026,21.411,59.287,22.496,59.219,23.563z"/>
  <path d="M 4.051 3.293 C 2.729 4.615 2 6.373 2 8.243 C 2 8.631 2.039 9.013 2.101 9.39 C 2.101 9.39 2.101 9.391 2.101 9.391 C 2.101 9.392 2.101 9.393 2.102 9.394 C 2.161 9.755 2.248 10.108 2.362 10.451 C 2.362 10.451 2.362 10.452 2.362 10.452 C 2.474 10.789 2.61 11.118 2.773 11.434 C 2.776 11.44 2.778 11.446 2.781 11.452 C 2.932 11.744 3.106 12.023 3.299 12.292 C 3.336 12.344 3.375 12.394 3.413 12.446 C 3.609 12.706 3.818 12.958 4.052 13.192 C 4.252 13.392 4.464 13.573 4.683 13.745 C 4.73 13.782 4.779 13.816 4.827 13.852 C 5.023 13.998 5.225 14.134 5.434 14.258 C 5.463 14.275 5.492 14.294 5.522 14.311 C 6.038 14.608 6.587 14.836 7.161 14.992 C 7.161 14.992 7.161 14.992 7.161 14.992 C 7.161 14.992 7.161 14.992 7.161 14.992 C 7.754 15.153 8.37 15.242 9.001 15.242 C 10.871 15.242 12.628 14.514 13.95 13.192 C 14.341 12.801 14.341 12.169 13.95 11.778 L 5.465 3.293 C 5.074 2.902 4.441 2.902 4.051 3.293 Z M 4.828 5.484 L 6.919 7.575 L 4.013 8.06 C 4.047 7.132 4.322 6.245 4.828 5.484 Z M 6.751 12.685 C 6.654 12.636 6.557 12.586 6.463 12.531 C 6.358 12.469 6.251 12.411 6.15 12.341 C 5.909 12.173 5.677 11.99 5.465 11.778 C 5.22 11.533 5.005 11.265 4.819 10.98 C 4.781 10.922 4.757 10.858 4.722 10.799 C 4.582 10.564 4.451 10.323 4.351 10.067 C 4.347 10.056 4.345 10.044 4.341 10.033 L 7.624 9.486 L 6.751 12.685 Z M 9 13.243 C 8.892 13.243 8.788 13.219 8.681 13.212 L 9.511 10.169 L 11.757 12.416 C 10.947 12.954 9.996 13.243 9 13.243 Z"/>
  <path d="M 35.317 5.546 C 34.582 3.454 31.205 2.954 29.346 3.003 C 28.326 3.024 24.823 3.322 22.563 6.232 C 21 8.247 20.608 10.747 21.4 13.663 C 22.193 16.578 24.71 20.247 29.196 20.993 C 29.724 21.081 30.258 21.124 30.79 21.124 C 33.661 21.124 36.489 19.881 38.165 17.791 C 40.074 15.412 40.912 11.586 39.062 9.901 C 38.015 8.945 36.569 9.036 35.406 9.11 C 35.057 9.132 34.561 9.162 34.301 9.128 C 34.373 8.949 34.54 8.673 34.66 8.475 C 35.11 7.729 35.728 6.709 35.317 5.546 Z M 35.539 11.002 C 36.388 10.949 37.267 10.894 37.676 11.267 C 38.486 12.005 38.097 14.745 36.573 16.644 C 35.027 18.572 32.2 19.57 29.542 19.127 C 25.993 18.537 23.981 15.56 23.338 13.191 C 22.702 10.852 22.984 8.888 24.175 7.355 C 25.938 5.084 28.83 4.909 29.392 4.898 C 29.448 4.896 29.504 4.896 29.562 4.896 C 31.213 4.896 33.156 5.391 33.421 6.146 C 33.547 6.503 33.231 7.027 32.924 7.533 C 32.484 8.263 31.936 9.17 32.501 10.106 C 32.501 10.106 32.501 10.106 32.502 10.107 C 33.135 11.152 34.464 11.069 35.539 11.002 Z" style=""/>
  <path d="M28.997,14.224l-1.256,1.556c0.426,0.344,1.8,1.316,3.7,1.316c0.357,0,0.734-0.035,1.127-0.114  c2.065-0.42,3.224-1.828,3.626-2.415l-1.65-1.131c-0.206,0.301-0.986,1.304-2.374,1.585C30.513,15.358,29.235,14.417,28.997,14.224z  "/>
  <path d="M27.396,10.168C27.605,8.943,28.905,8.011,30.419,8l-0.016-2c-2.468,0.018-4.608,1.666-4.979,3.833  c-0.33,1.942,0.873,3.433,1.249,3.843l1.475-1.352C27.991,12.152,27.215,11.241,27.396,10.168z"/>
  <path d="M18.998,19.126C18.999,19.084,19,19.042,19,19c0-2.206-1.794-4-4-4s-4,1.794-4,4c0,0.042,0.001,0.084,0.002,0.126  C9.277,19.57,8,21.139,8,23c0,1.961,1.419,3.598,3.284,3.936l-0.274,1.923c-0.041,0.287,0.045,0.577,0.234,0.796  C11.435,29.874,11.71,30,12,30h6c0.29,0,0.565-0.126,0.756-0.345c0.189-0.219,0.275-0.51,0.234-0.796l-0.274-1.923  C20.581,26.598,22,24.961,22,23C22,21.139,20.723,19.57,18.998,19.126z M18,25c-0.088,0-0.173-0.016-0.289-0.033  c-0.312-0.048-0.627,0.058-0.851,0.281c-0.224,0.223-0.329,0.538-0.285,0.85L16.847,28h-3.693l0.271-1.903  c0.044-0.312-0.076-0.625-0.3-0.848s-0.554-0.325-0.867-0.278C12.173,24.984,12.088,25,12,25c-1.103,0-2-0.897-2-2  c0-1.103,0.896-2,1.971-2h0.001c0.025,0.003,0.131,0.015,0.156,0.017c0.34,0.029,0.66-0.129,0.862-0.399s0.254-0.624,0.139-0.94  C13.042,19.438,13,19.217,13,19c0-1.103,0.897-2,2-2s2,0.897,2,2c0,0.217-0.042,0.438-0.129,0.677  c-0.115,0.316-0.063,0.67,0.139,0.94c0.202,0.27,0.523,0.422,0.862,0.399c0.015-0.001,0.11-0.012,0.155-0.017  C19.118,21.015,20,21.906,20,23C20,24.103,19.103,25,18,25z"/>
  <path d="M 46 10.467 C 46 12.297 47.419 13.825 49.284 14.14 L 49.01 15.935 C 48.969 16.203 49.055 16.474 49.244 16.678 C 49.435 16.882 49.71 17 50 17 L 56 17 C 56.29 17 56.565 16.882 56.756 16.678 C 56.945 16.474 57.031 16.202 56.99 15.935 L 56.716 14.14 C 58.581 13.825 60 12.297 60 10.467 C 60 8.73 58.723 7.265 56.998 6.851 C 56.999 6.812 57 6.773 57 6.733 C 57 4.674 55.206 3 53 3 C 50.794 3 49 4.674 49 6.733 C 49 6.773 49.001 6.812 49.002 6.851 C 47.277 7.265 46 8.73 46 10.467 Z M 49.971 8.6 L 49.971 8.6 C 49.997 8.603 50.103 8.614 50.128 8.616 C 50.462 8.644 50.789 8.495 50.99 8.243 C 51.192 7.991 51.244 7.661 51.129 7.366 C 51.042 7.142 51 6.936 51 6.733 C 51 5.704 51.897 4.867 53 4.867 C 54.103 4.867 55 5.704 55 6.733 C 55 6.936 54.958 7.142 54.871 7.365 C 54.756 7.66 54.808 7.991 55.01 8.243 C 55.211 8.495 55.535 8.636 55.872 8.615 C 55.887 8.614 55.982 8.604 56.027 8.599 C 57.118 8.614 58 9.446 58 10.467 C 58 11.496 57.103 12.333 56 12.333 C 55.912 12.333 55.827 12.318 55.711 12.303 C 55.399 12.258 55.084 12.356 54.86 12.565 C 54.636 12.773 54.531 13.067 54.575 13.358 L 54.847 15.133 L 51.154 15.133 L 51.425 13.357 C 51.469 13.066 51.349 12.774 51.125 12.566 C 50.901 12.358 50.573 12.262 50.258 12.306 C 50.173 12.318 50.088 12.333 50 12.333 C 48.897 12.333 48 11.496 48 10.467 C 48 9.437 48.896 8.6 49.971 8.6 Z" style=""/>
  <path d="M37.313,21.281c-0.798,0.771-0.822,1.646-0.844,2.418c-0.018,0.601-0.033,1.169-0.366,1.874  c-0.519,1.097-1.387,1.626-2.021,2.014c-0.501,0.306-1.34,0.817-1.019,1.742c0.255,0.735,1.105,1.063,2.755,1.063  c0.003,0,0.005,0,0.008,0c2.496-0.001,7.017-0.859,8.127-4.064c0.461-1.335,0.329-3.134-0.66-4.42  c0.077-0.154,0.14-0.308,0.205-0.489c0.077-0.213,0.181-0.503,0.412-0.986c0.49-1.025,0.854-2.114,1.078-3.235l-1.961-0.394  c-0.192,0.959-0.502,1.889-0.922,2.766c-0.25,0.522-0.373,0.85-0.462,1.096C40.164,20.058,38.371,20.258,37.313,21.281z   M42.062,25.673c-0.267,0.771-0.977,1.412-2.11,1.906c-1.175,0.513-2.488,0.73-3.524,0.792c0.532-0.464,1.081-1.09,1.484-1.943  c0.512-1.084,0.538-2.002,0.557-2.673c0.019-0.663,0.044-0.852,0.233-1.035c0.001,0,0.001,0,0.001,0  c0.264-0.255,0.729-0.403,1.232-0.403c0.498,0,1.036,0.145,1.458,0.473C42.299,23.495,42.33,24.9,42.062,25.673z"/>
  <rect x="3" y="20" width="2" height="4"/>
  <rect x="3" y="16" width="2" height="2"/>
  <rect x="42" width="2" height="1" y="3" style=""/>
  <rect x="42" y="6" width="2" height="4"/>
  <path d="M24,25c0,2.757,2.243,5,5,5v-2c-1.654,0-3-1.346-3-3H24z"/>
  <path d="M13,3v2c2.206,0,4,1.794,4,4h2C19,5.691,16.309,3,13,3z"/>
  <path d="M48,24c0-1.654,1.346-3,3-3v-2c-2.757,0-5,2.243-5,5H48z"/>
</svg>
